<svg width="29" height="30" viewBox="0 0 29 30" fill="none" xmlns="http://www.w3.org/2000/svg">
<g clip-path="url(#clip0_109_2301)">
<path fill-rule="evenodd" clip-rule="evenodd" d="M9.65147 5.56938C9.65147 4.30461 10.1539 3.09163 11.0482 2.1973C11.9426 1.30297 13.1555 0.800537 14.4203 0.800537C15.6851 0.800537 16.8981 1.30297 17.7924 2.1973C18.6867 3.09163 19.1892 4.30461 19.1892 5.56938C19.1892 6.83416 18.6867 8.04713 17.7924 8.94147C16.8981 9.8358 15.6851 10.3382 14.4203 10.3382C13.1555 10.3382 11.9426 9.8358 11.0482 8.94147C10.1539 8.04713 9.65147 6.83416 9.65147 5.56938ZM5.03918 13.3808C6.00994 12.4593 7.29739 11.9455 8.6359 11.9455C9.97441 11.9455 11.2619 12.4593 12.2326 13.3808L12.2532 13.4014L14.4203 15.5685L16.5895 13.4014L16.6101 13.3808C17.5806 12.4605 18.8672 11.9474 20.2047 11.9474C21.5423 11.9474 22.8288 12.4605 23.7994 13.3808C24.2815 13.838 24.6655 14.3885 24.9281 14.9988C25.1908 15.6091 25.3265 16.2665 25.3271 16.9309C25.3276 17.5953 25.1931 18.2529 24.9315 18.8636C24.6699 19.4744 24.2869 20.0256 23.8056 20.4836L15.1372 28.9089C14.9449 29.0958 14.6874 29.2003 14.4193 29.2003C14.1512 29.2003 13.8936 29.0958 13.7014 28.9089L5.03506 20.4836C4.55397 20.0257 4.171 19.4748 3.90945 18.8643C3.6479 18.2538 3.51323 17.5965 3.51361 16.9324C3.514 16.2682 3.64944 15.6111 3.91169 15.0009C4.17395 14.3907 4.55755 13.8381 5.03918 13.3808Z" fill="#3B9AB8"/>
</g>
<defs>
<clipPath id="clip0_109_2301">
<rect width="28.8397" height="28.8397" fill="white" transform="translate(0 0.580078)"/>
</clipPath>
</defs>
</svg>
